# xmcd
#
# Track frame offsets:
#        150
#        29079
#        57632
#        78974
#        106533
#        129584
#        145531
#        168299
#        193649
#
# Disc length: 3145 seconds
#
# Revision: 3
# Processed by: cddbd v1.5.1PL2 Copyright (c) Steve Scherf et al.
# Submitted via: ExactAudioCopy v0.95b3
#
DISCID=720c4709
DTITLE=KINGS - KINGS
DYEAR=1995
DGENRE=Japanese Rock
TTITLE0=Break Down
TTITLE1=The Gate Of Your Soul
TTITLE2=Standing Up To The World
TTITLE3=1989 For 1994
TTITLE4=Misty Eyes
TTITLE5=Are You Ready (Gonna Smash It Along)
TTITLE6=Not Throwing The Keys
TTITLE7=Hard-Pressed City
TTITLE8=Praying For The Dying
EXTD=YEAR: 1995
EXTT0=
EXTT1=
EXTT2=
EXTT3=
EXTT4=
EXTT5=
EXTT6=
EXTT7=
EXTT8=
PLAYORDER=
